<?xml version="1.0" encoding="utf-8"?>
<!-- Generator: Adobe Illustrator 15.0.0, SVG Export Plug-In . SVG Version: 6.00 Build 0)  -->
<!DOCTYPE svg PUBLIC "-//W3C//DTD SVG 1.1//EN" "http://www.w3.org/Graphics/SVG/1.1/DTD/svg11.dtd">
<svg version="1.1" id="Capa_1" xmlns="http://www.w3.org/2000/svg" xmlns:xlink="http://www.w3.org/1999/xlink" x="0px" y="0px"
	 width="841.89px" height="595.28px" viewBox="0 0 841.89 595.28" enable-background="new 0 0 841.89 595.28" xml:space="preserve">
<path fill="#2A8034" d="M371.346,273.042c0.509-16.292,3.921-19.809,7.259-23.597c3.335-3.79,9.422-6.481,9.884-11.098
	c0.46-4.615,0.737-35.796,1.213-44.484c0.477-8.688,2.296-24.008,2.308-24.002h0.002c-1.17-0.591-1.991-2.003-1.985-3.652
	c0.01-2.173,1.453-3.932,3.229-3.925l9.062,0.036l1.525,0.005l9.063,0.037c1.772,0.006,3.202,1.777,3.192,3.95
	c-0.007,1.649-0.838,3.055-2.013,3.637l0.005,0c0.011-0.005,1.708,15.328,2.117,24.021c0.408,8.691,0.436,39.873,0.861,44.492
	c0.421,4.62,6.487,7.359,9.794,11.176c3.305,3.814,6.692,7.358,7.068,23.654c0.381,16.299-0.412,103.712-0.412,103.712
	s0.614,12.768-2.505,17.645s-15.687,4.556-23.435,4.253c-1.235-0.049-4.675,0.047-4.675,0.047c-0.265-0.009-1.526-0.044-1.526-0.044
	c-1.828-0.051-3.44-0.084-4.677-0.046c-7.752,0.241-20.317,0.461-23.398-4.438c-3.08-4.902-2.367-17.663-2.367-17.663
	S370.842,289.339,371.346,273.042z M400.561,162.35c-0.011,0.195-0.021,0.405-0.032,0.625c-0.081,1.559-0.204,4.032-0.344,6.961
	c-0.235,5.013-0.546,12.053-0.678,17.132c-0.12,4.689-0.239,16.722-0.353,28.355c-0.121,12.317-0.247,25.052-0.365,27.671
	c-0.117,2.604-3.063,4.588-4.304,6.896c-0.735,1.368-1.495,2.782-2.12,4.428l-0.105,0.274c-1.657,4.364-3.376,8.876-3.663,27.318
	c-0.278,17.874-0.432,107.102-0.435,109.54c-0.021,0.732-0.081,3.567-0.027,7.024c1.817,0.231,3.739,0.354,5.648,0.408
	c-0.057-2.977-0.029-5.726,0.012-7.293l0.001-0.091c0.002-0.912,0.153-91.502,0.434-109.482c0.269-17.185-0.183-20.944,1.329-24.914
	l0.106-0.283c0.469-1.233,1.094-2.397,1.757-3.631c1.429-2.66,3.047-5.677,3.237-9.892c0.125-2.746,0.245-14.976,0.372-27.925
	c0.115-11.606,0.231-23.606,0.352-28.24c0.197-7.639,0.82-20.207,1.065-24.876L400.561,162.35z"/>
</svg>
